<svg xmlns="http://www.w3.org/2000/svg" width="90" height="90" viewBox="0 0 90 90">
    <path fill="#FFF" fill-rule="evenodd" d="M35.335 50.66h-1.843V40.476h-2.223v9.329h-1.843V33.503h1.843v5.339h2.223v-5.7h1.843V50.66zM22.871 34.795V44.2h.76c.722 0 1.45-.022 2.185-.067a20.596 20.596 0 0 0 2.299-.275l.209 1.634c-.773.14-1.612.234-2.518.285-.905.05-1.903.076-2.992.076H20.99V34.795h1.881zm24.757 5.13c-.633-.317-1.115-.595-1.444-.836-.33-.24-.551-.469-.665-.684H45.5c-.101.215-.32.446-.656.694-.335.247-.82.528-1.453.845-.52.253-1.099.532-1.738.836-.64.304-1.359.608-2.157.912l-.741-1.539c.71-.266 1.406-.554 2.09-.864.684-.31 1.33-.63 1.938-.96.38-.203.687-.408.922-.617a2.71 2.71 0 0 0 .541-.637c.127-.215.212-.434.256-.656a3.43 3.43 0 0 0 .067-.674h-5.035v-1.596h11.97v1.596H46.45c0 .228.022.453.066.675.045.221.127.44.248.655.12.215.297.427.531.636.235.21.542.415.922.618.608.33 1.254.65 1.938.96.684.31 1.38.598 2.09.864l-.722 1.52a29.578 29.578 0 0 1-2.157-.912c-.64-.304-1.219-.583-1.738-.836zM44.55 50.66v-6.004h-7.087V43.06h16.074v1.596H46.45v6.004h-1.9zm11.248-7.809v-8.892h1.843v3.097h4.503v-3.097h1.843v8.892h-8.189zm11.742 2.793v-4.332h-2.736v-1.615h2.736V37.55h-2.736v-1.615h2.736v-2.793h1.843v12.502H67.54zm-7.22 3.192h9.424v1.634H58.439v-5.681h1.881v4.047zm-2.679-7.581h4.503v-2.622h-4.503v2.622zM44.892 63.49v1.596h-7.087v6.574h-1.9v-6.574h-7.087V63.49h11.419c.101-.57.187-1.083.256-1.539.07-.456.118-.893.143-1.311l-9.842.19-.038-1.596 9.937-.133v-2.28h-9.766v-1.653h11.59v2.926c0 .671-.032 1.472-.095 2.404a31.118 31.118 0 0 1-.361 2.992h2.831zm17.29.095v1.596H46.108v-1.596h7.087V61.59h-5.263v-1.539h2.356v-3.648h-2.261v-1.539h12.236v1.539h-2.261v3.648h2.356v1.539h-5.263v1.995h7.087zm-11.875 6.251h9.899v1.634h-11.78v-4.978h1.881v3.344zm1.824-9.785h4.028v-3.648h-4.028v3.648z"/>
</svg>
